<svg width="120" height="61" viewBox="0 0 120 61" fill="none" xmlns="http://www.w3.org/2000/svg">
<path d="M84.0439 38.563L84.4892 40.5914H83.6565L82.7976 38.563H84.0439Z" fill="white"/>
<path d="M83.7443 40.4582H84.3263L83.9371 38.6936H82.9958L83.7443 40.4582ZM84.6538 40.7221H83.5703L82.5991 38.4316H84.1485L84.6538 40.7221Z" fill="#1D1D1B"/>
<path d="M37.0997 38.563L36.6543 40.5914H37.487L38.3459 38.563H37.0997Z" fill="white"/>
<path d="M36.8172 40.4582H37.3992L38.1477 38.6936H37.2064L36.8172 40.4582ZM37.5732 40.7221H36.4897L36.9931 38.4316H38.5444L37.5732 40.7221Z" fill="#1D1D1B"/>
<mask id="mask0_49_668" style="mask-type:luminance" maskUnits="userSpaceOnUse" x="31" y="36" width="59" height="9">
<path d="M31.7363 36.2876H89.7004V44.5679H31.7363V36.2876Z" fill="white"/>
</mask>
<g mask="url(#mask0_49_668)">
<path d="M89.2755 44.4371L87.5858 36.7462H85.2972V36.2915H36.3039L36.216 36.7462H33.5569L31.8672 44.4371H33.3923L35.8455 38.6512H85.2972L87.7504 44.4371H89.2755Z" fill="white"/>
</g>
<mask id="mask1_49_668" style="mask-type:luminance" maskUnits="userSpaceOnUse" x="31" y="35" width="59" height="10">
<path d="M31.2573 35.8086H89.7004V44.568H31.2573V35.8086Z" fill="white"/>
</mask>
<g mask="url(#mask1_49_668)">
<path d="M87.8366 44.3044H89.1128L87.4792 36.8773H85.1645V36.4245H36.4126L36.3246 36.8773H33.6637L32.0301 44.3044H33.3044L35.7577 38.5203H85.3853L87.8366 44.3044ZM89.4403 44.5682H87.6626L85.2094 38.7823H35.9335L33.4803 44.5682H31.7026L33.4523 36.6154H36.1076L36.1955 36.1606H85.4283V36.6154H87.6907L89.4403 44.5682Z" fill="#1D1D1B"/>
</g>
<path d="M31.8677 20.5633C31.8677 20.5633 32.386 16.2519 32.6517 14.5136C32.9175 12.777 34.1113 10.9282 36.3662 10.9282C38.621 10.9282 55.8647 10.9282 57.721 10.9282C59.5791 10.9282 60.5709 12.4196 60.5709 14.5136C60.5709 16.6075 60.5709 31.7329 60.5709 31.7329H34.2442L31.8677 20.5633Z" fill="white"/>
<mask id="mask2_49_668" style="mask-type:luminance" maskUnits="userSpaceOnUse" x="31" y="10" width="30" height="22">
<path d="M31.2573 10.7954H60.9579V31.9762H31.2573V10.7954Z" fill="white"/>
</mask>
<g mask="url(#mask2_49_668)">
<path d="M34.3503 31.602H60.4394V14.5137C60.4394 12.3842 59.3971 11.0593 57.7204 11.0593H36.3657C34.1108 11.0593 33.0255 12.9306 32.7822 14.5343C32.5296 16.1866 32.0393 20.2248 32 20.5578L34.3503 31.602ZM60.7032 31.864H34.137L34.1145 31.7611L31.7324 20.5691L31.7362 20.5485C31.7418 20.5036 32.2582 16.2128 32.5202 14.495C32.8009 12.6537 34.0996 10.7974 36.3657 10.7974H57.7204C59.5599 10.7974 60.7032 12.2214 60.7032 14.5137V31.864Z" fill="#1D1D1B"/>
</g>
<path d="M89.2759 20.5633C89.2759 20.5633 88.7576 16.2519 88.4918 14.5136C88.2261 12.777 87.0323 10.9282 84.7774 10.9282C82.5225 10.9282 65.2789 10.9282 63.4207 10.9282C61.5644 10.9282 60.5708 12.4196 60.5708 14.5136C60.5708 16.6075 60.5708 31.7329 60.5708 31.7329H86.8994L89.2759 20.5633Z" fill="white"/>
<mask id="mask3_49_668" style="mask-type:luminance" maskUnits="userSpaceOnUse" x="60" y="10" width="30" height="22">
<path d="M60 10.7954H89.7006V31.9762H60V10.7954Z" fill="white"/>
</mask>
<g mask="url(#mask3_49_668)">
<path d="M60.7038 31.602H86.7929L89.1432 20.5578C89.102 20.2248 88.6136 16.1866 88.361 14.5343C88.1177 12.9306 87.0305 11.0593 84.7775 11.0593H63.4209C61.7442 11.0593 60.7038 12.3842 60.7038 14.5137V31.602ZM87.0062 31.864H60.4399V14.5137C60.4399 12.2214 61.5833 10.7974 63.4209 10.7974H84.7775C87.0436 10.7974 88.3404 12.6537 88.623 14.495C88.8849 16.2128 89.4014 20.5036 89.407 20.5485L89.4108 20.5691L89.4051 20.5915L87.0062 31.864Z" fill="#1D1D1B"/>
</g>
<path d="M34.6538 29.9812C34.6538 29.9812 34.9101 28.2334 37.8929 28.2334H58.5497C59.6669 28.2334 60.5707 29.1335 60.5707 30.2469V35.2338H35.4378L33.314 32.4606L34.6538 29.9812Z" fill="white"/>
<path d="M35.5015 35.1029H60.4398V30.247C60.4398 29.2085 59.5921 28.3645 58.5498 28.3645H37.893C35.0711 28.3645 34.7942 29.9345 34.7829 30.0019L34.7698 30.043L33.4712 32.4476L35.5015 35.1029ZM60.7036 35.3649H35.3724L33.1587 32.4719L34.5266 29.9382C34.5715 29.7081 34.9869 28.1025 37.893 28.1025H58.5498C59.7362 28.1025 60.7036 29.0644 60.7036 30.247V35.3649Z" fill="#1D1D1B"/>
<path d="M86.4896 29.9812C86.4896 29.9812 86.2332 28.2334 83.2504 28.2334H62.5936C61.4765 28.2334 60.5708 29.1335 60.5708 30.2469V35.2338H85.7055L87.8294 32.4606L86.4896 29.9812Z" fill="white"/>
<path d="M60.7038 35.1029H85.6402L87.6724 32.4476L86.3606 30.0019C86.3494 29.9326 86.0687 28.3645 83.2506 28.3645H62.5938C61.5515 28.3645 60.7038 29.2085 60.7038 30.247V35.1029ZM85.7712 35.3649H60.4399V30.247C60.4399 29.0644 61.4055 28.1025 62.5938 28.1025H83.2506C86.1566 28.1025 86.5721 29.7081 86.617 29.9382L87.9849 32.4719L85.7712 35.3649Z" fill="#1D1D1B"/>
<mask id="mask4_49_668" style="mask-type:luminance" maskUnits="userSpaceOnUse" x="24" y="18" width="73" height="20">
<path d="M24.1074 18.563H96.8862V37.7247H24.1074V18.563Z" fill="white"/>
</mask>
<g mask="url(#mask4_49_668)">
<path d="M94.1746 18.855H91.6203C90.5481 18.855 89.5994 19.5455 89.2757 20.5634L85.5743 32.1952H35.5668L31.8673 20.5634C31.5436 19.5455 30.5949 18.855 29.5227 18.855H26.9684C25.2918 18.855 24.1054 20.4886 24.6331 22.0735L28.922 34.9759C29.4441 36.5496 30.9205 37.6106 32.5859 37.6106H88.5571C90.2225 37.6106 91.6971 36.5496 92.221 34.9759L96.5099 22.0735C97.0358 20.4886 95.8513 18.855 94.1746 18.855Z" fill="white"/>
</g>
<mask id="mask5_49_668" style="mask-type:luminance" maskUnits="userSpaceOnUse" x="24" y="18" width="73" height="21">
<path d="M24.1074 18.563H96.8862V38.2037H24.1074V18.563Z" fill="white"/>
</mask>
<g mask="url(#mask5_49_668)">
<path d="M26.9687 18.9856C26.2109 18.9856 25.5241 19.3355 25.0806 19.9456C24.639 20.5556 24.5211 21.3153 24.7588 22.032L29.0458 34.9343C29.5529 36.4575 30.9751 37.4811 32.5863 37.4811H88.5574C90.1686 37.4811 91.5907 36.4575 92.096 34.9343L96.3849 22.032C96.6226 21.3153 96.5047 20.5556 96.0612 19.9456C95.6196 19.3355 94.9309 18.9856 94.1749 18.9856H91.6207C90.6008 18.9856 89.7101 19.6349 89.4014 20.6024L85.672 32.3258H35.4717L31.7404 20.6024C31.4336 19.6349 30.541 18.9856 29.523 18.9856H26.9687ZM88.5574 37.7431H32.5863C30.861 37.7431 29.3377 36.6465 28.797 35.0167L24.508 22.1144C24.2442 21.3172 24.3752 20.4714 24.8673 19.7921C25.3595 19.1129 26.1267 18.7236 26.9687 18.7236H29.523C30.657 18.7236 31.6506 19.4459 31.9931 20.5238L35.6645 32.0638H85.4792L89.1506 20.5238C89.4931 19.4459 90.4848 18.7236 91.6207 18.7236H94.1749C95.017 18.7236 95.7824 19.1129 96.2764 19.7921C96.7685 20.4714 96.8995 21.3172 96.6357 22.1144L92.3467 35.0167C91.8041 36.6465 90.2827 37.7431 88.5574 37.7431Z" fill="#1D1D1B"/>
</g>
<path d="M84.0439 38.563L84.4892 40.5914H83.6565L82.7976 38.563H84.0439Z" fill="#0F5CE2"/>
<path d="M83.7443 40.4582H84.3263L83.9371 38.6936H82.9958L83.7443 40.4582ZM84.6538 40.7221H83.5703L82.5991 38.4316H84.1485L84.6538 40.7221Z" fill="white"/>
<mask id="mask6_49_668" style="mask-type:luminance" maskUnits="userSpaceOnUse" x="60" y="36" width="30" height="9">
<path d="M60.5391 36.2876H89.7007V44.2086H60.5391V36.2876Z" fill="white"/>
</mask>
<g mask="url(#mask6_49_668)">
<path d="M89.276 44.4371L87.5862 36.7462H85.2977V36.2915H36.3044L36.2165 36.7462H33.5574L31.8677 44.4371H33.3928L35.846 38.6512H85.2977L87.7509 44.4371H89.276Z" fill="#0F5CE2"/>
</g>
<mask id="mask7_49_668" style="mask-type:luminance" maskUnits="userSpaceOnUse" x="60" y="35" width="30" height="10">
<path d="M60.5391 35.8086H89.7007V44.2087H60.5391V35.8086Z" fill="white"/>
</mask>
<g mask="url(#mask7_49_668)">
<path d="M87.8371 44.3044H89.1133L87.4797 36.8773H85.165V36.4245H36.4131L36.3251 36.8773H33.6642L32.0306 44.3044H33.3049L35.7581 38.5203H85.3858L87.8371 44.3044ZM89.4408 44.5682H87.6631L85.2099 38.7823H35.934L33.4808 44.5682H31.7031L33.4528 36.6154H36.1081L36.196 36.1606H85.4288V36.6154H87.6911L89.4408 44.5682Z" fill="white"/>
</g>
<mask id="mask8_49_668" style="mask-type:luminance" maskUnits="userSpaceOnUse" x="60" y="10" width="1" height="22">
<path d="M60.5391 10.8979H60.9582V31.9758H60.5391V10.8979Z" fill="white"/>
</mask>
<g mask="url(#mask8_49_668)">
<path d="M31.8677 20.5628C31.8677 20.5628 32.386 16.2515 32.6517 14.5131C32.9175 12.7765 34.1113 10.9277 36.3662 10.9277C38.621 10.9277 55.8647 10.9277 57.721 10.9277C59.5791 10.9277 60.5709 12.4191 60.5709 14.5131C60.5709 16.607 60.5709 31.7324 60.5709 31.7324H34.2442L31.8677 20.5628Z" fill="#0F5CE2"/>
</g>
<mask id="mask9_49_668" style="mask-type:luminance" maskUnits="userSpaceOnUse" x="60" y="10" width="1" height="22">
<path d="M60.5391 10.7954H60.9582V31.9762H60.5391V10.7954Z" fill="white"/>
</mask>
<g mask="url(#mask9_49_668)">
<path d="M34.3508 31.602H60.4399V14.5137C60.4399 12.3842 59.3976 11.0593 57.7209 11.0593H36.3661C34.1113 11.0593 33.0259 12.9306 32.7827 14.5343C32.5301 16.1866 32.0398 20.2248 32.0005 20.5578L34.3508 31.602ZM60.7037 31.864H34.1375L34.115 31.7611L31.7329 20.5691L31.7367 20.5485C31.7423 20.5036 32.2587 16.2128 32.5207 14.495C32.8014 12.6537 34.1001 10.7974 36.3661 10.7974H57.7209C59.5604 10.7974 60.7037 12.2214 60.7037 14.5137V31.864Z" fill="white"/>
</g>
<mask id="mask10_49_668" style="mask-type:luminance" maskUnits="userSpaceOnUse" x="60" y="10" width="30" height="22">
<path d="M60.5391 10.8979H89.7007V31.9758H60.5391V10.8979Z" fill="white"/>
</mask>
<g mask="url(#mask10_49_668)">
<path d="M89.2759 20.5628C89.2759 20.5628 88.7576 16.2515 88.4918 14.5131C88.2261 12.7765 87.0323 10.9277 84.7774 10.9277C82.5225 10.9277 65.2789 10.9277 63.4207 10.9277C61.5644 10.9277 60.5708 12.4191 60.5708 14.5131C60.5708 16.607 60.5708 31.7324 60.5708 31.7324H86.8994L89.2759 20.5628Z" fill="#0F5CE2"/>
</g>
<mask id="mask11_49_668" style="mask-type:luminance" maskUnits="userSpaceOnUse" x="60" y="10" width="30" height="22">
<path d="M60.5391 10.7954H89.7007V31.9762H60.5391V10.7954Z" fill="white"/>
</mask>
<g mask="url(#mask11_49_668)">
<path d="M60.7038 31.602H86.7929L89.1432 20.5578C89.102 20.2248 88.6136 16.1866 88.361 14.5343C88.1177 12.9306 87.0305 11.0593 84.7775 11.0593H63.4209C61.7442 11.0593 60.7038 12.3842 60.7038 14.5137V31.602ZM87.0062 31.864H60.4399V14.5137C60.4399 12.2214 61.5833 10.7974 63.4209 10.7974H84.7775C87.0436 10.7974 88.3404 12.6537 88.623 14.495C88.8849 16.2128 89.4014 20.5036 89.407 20.5485L89.4108 20.5691L89.4051 20.5915L87.0062 31.864Z" fill="white"/>
</g>
<mask id="mask12_49_668" style="mask-type:luminance" maskUnits="userSpaceOnUse" x="60" y="28" width="1" height="8">
<path d="M60.5391 28.1436H60.9582V35.3292H60.5391V28.1436Z" fill="white"/>
</mask>
<g mask="url(#mask12_49_668)">
<path d="M34.6538 29.9812C34.6538 29.9812 34.9101 28.2334 37.8929 28.2334H58.5497C59.6669 28.2334 60.5707 29.1335 60.5707 30.2469V35.2338H35.4378L33.314 32.4606L34.6538 29.9812Z" fill="#0F5CE2"/>
</g>
<mask id="mask13_49_668" style="mask-type:luminance" maskUnits="userSpaceOnUse" x="60" y="27" width="1" height="9">
<path d="M60.5391 27.6646H60.9582V35.8083H60.5391V27.6646Z" fill="white"/>
</mask>
<g mask="url(#mask13_49_668)">
<path d="M35.5015 35.1029H60.4398V30.247C60.4398 29.2085 59.5921 28.3645 58.5498 28.3645H37.893C35.0711 28.3645 34.7942 29.9345 34.7829 30.0019L34.7698 30.043L33.4712 32.4476L35.5015 35.1029ZM60.7036 35.3649H35.3724L33.1587 32.4719L34.5266 29.9382C34.5715 29.7081 34.9869 28.1025 37.893 28.1025H58.5498C59.7362 28.1025 60.7036 29.0644 60.7036 30.247V35.3649Z" fill="white"/>
</g>
<mask id="mask14_49_668" style="mask-type:luminance" maskUnits="userSpaceOnUse" x="60" y="28" width="29" height="8">
<path d="M60.5391 28.1436H88.2636V35.3292H60.5391V28.1436Z" fill="white"/>
</mask>
<g mask="url(#mask14_49_668)">
<path d="M86.4896 29.9812C86.4896 29.9812 86.2332 28.2334 83.2504 28.2334H62.5936C61.4765 28.2334 60.5708 29.1335 60.5708 30.2469V35.2338H85.7055L87.8294 32.4606L86.4896 29.9812Z" fill="#0F5CE2"/>
</g>
<mask id="mask15_49_668" style="mask-type:luminance" maskUnits="userSpaceOnUse" x="60" y="27" width="29" height="9">
<path d="M60.5391 27.6646H88.2636V35.8083H60.5391V27.6646Z" fill="white"/>
</mask>
<g mask="url(#mask15_49_668)">
<path d="M60.7038 35.1029H85.6402L87.6724 32.4476L86.3606 30.0019C86.3494 29.9326 86.0687 28.3645 83.2506 28.3645H62.5938C61.5515 28.3645 60.7038 29.2085 60.7038 30.247V35.1029ZM85.7712 35.3649H60.4399V30.247C60.4399 29.0644 61.4055 28.1025 62.5938 28.1025H83.2506C86.1566 28.1025 86.5721 29.7081 86.617 29.9382L87.9849 32.4719L85.7712 35.3649Z" fill="white"/>
</g>
<mask id="mask16_49_668" style="mask-type:luminance" maskUnits="userSpaceOnUse" x="60" y="18" width="37" height="20">
<path d="M60.5391 18.563H96.8265V37.7247H60.5391V18.563Z" fill="white"/>
</mask>
<g mask="url(#mask16_49_668)">
<path d="M94.1751 18.855H91.6208C90.5486 18.855 89.5999 19.5455 89.2761 20.5634L85.5748 32.1952H35.5673L31.8678 20.5634C31.5441 19.5455 30.5954 18.855 29.5232 18.855H26.9689C25.2922 18.855 24.1059 20.4886 24.6336 22.0735L28.9225 34.9759C29.4446 36.5496 30.921 37.6106 32.5864 37.6106H88.5576C90.223 37.6106 91.6976 36.5496 92.2215 34.9759L96.5104 22.0735C97.0363 20.4886 95.8517 18.855 94.1751 18.855Z" fill="#0F5CE2"/>
</g>
<mask id="mask17_49_668" style="mask-type:luminance" maskUnits="userSpaceOnUse" x="60" y="18" width="37" height="21">
<path d="M60.5391 18.563H96.8265V38.2037H60.5391V18.563Z" fill="white"/>
</mask>
<g mask="url(#mask17_49_668)">
<path d="M26.9687 18.9856C26.2109 18.9856 25.5241 19.3355 25.0806 19.9456C24.639 20.5556 24.5211 21.3153 24.7588 22.032L29.0458 34.9343C29.5529 36.4575 30.9751 37.4811 32.5863 37.4811H88.5574C90.1686 37.4811 91.5907 36.4575 92.096 34.9343L96.3849 22.032C96.6226 21.3153 96.5047 20.5556 96.0612 19.9456C95.6196 19.3355 94.9309 18.9856 94.1749 18.9856H91.6207C90.6008 18.9856 89.7101 19.6349 89.4014 20.6024L85.672 32.3258H35.4717L31.7404 20.6024C31.4336 19.6349 30.541 18.9856 29.523 18.9856H26.9687ZM88.5574 37.7431H32.5863C30.861 37.7431 29.3377 36.6465 28.797 35.0167L24.508 22.1144C24.2442 21.3172 24.3752 20.4714 24.8673 19.7921C25.3595 19.1129 26.1267 18.7236 26.9687 18.7236H29.523C30.657 18.7236 31.6506 19.4459 31.9931 20.5238L35.6645 32.0638H85.4792L89.1506 20.5238C89.4931 19.4459 90.4848 18.7236 91.6207 18.7236H94.1749C95.017 18.7236 95.7824 19.1129 96.2764 19.7921C96.7685 20.4714 96.8995 21.3172 96.6357 22.1144L92.3467 35.0167C91.8041 36.6465 90.2827 37.7431 88.5574 37.7431Z" fill="white"/>
</g>
<path d="M4.00767 50.3965C4.98447 50.3965 5.69929 50.6098 6.14839 51.0327C6.59749 51.4519 6.82204 52.032 6.82204 52.7692C6.82204 53.2146 6.72848 53.6281 6.54509 54.0118C6.35984 54.3972 6.05295 54.706 5.62444 54.9399C5.19405 55.1701 4.61396 55.2842 3.88042 55.2842H3.18432V57.9863H1.58252V50.3965H4.00767ZM3.91785 51.7138H3.18432V53.9668H3.71575C4.1686 53.9668 4.52788 53.877 4.7936 53.6974C5.06306 53.5177 5.19779 53.2258 5.19779 52.8216C5.19779 52.0844 4.77114 51.7138 3.91785 51.7138Z" fill="black"/>
<path d="M15.1504 57.9863H10.7866V50.3965H15.1504V51.7138H12.3884V53.383H14.9633V54.7004H12.3884V56.6615H15.1504V57.9863Z" fill="black"/>
<path d="M22.4791 57.9863L20.6453 52.0357H20.6079C20.6116 52.1761 20.6229 52.3875 20.6378 52.6719C20.6528 52.9564 20.664 53.2614 20.6753 53.5851C20.6902 53.9107 20.6977 54.2026 20.6977 54.4609V57.9863H19.2681V50.3965H21.4537L23.2501 56.1974H23.2875L25.1887 50.3965H27.3744V57.9863H25.8773V54.3935C25.8773 54.154 25.8811 53.8808 25.8923 53.5701C25.9017 53.2558 25.911 52.9601 25.9223 52.6794C25.9372 52.4006 25.9466 52.1891 25.9522 52.0432H25.9073L23.9537 57.9863H22.4791Z" fill="black"/>
<path d="M38.7061 54.1839C38.7061 54.9679 38.5751 55.6547 38.3169 56.2423C38.0568 56.8261 37.6601 57.2808 37.1268 57.6045C36.5916 57.9301 35.9142 58.0911 35.0909 58.0911C34.2675 58.0911 33.5882 57.9301 33.0549 57.6045C32.5197 57.2808 32.123 56.8242 31.8648 56.2348C31.6047 55.6472 31.4756 54.9586 31.4756 54.1689C31.4756 53.3867 31.6047 52.7056 31.8648 52.1255C32.123 51.5417 32.5197 51.0907 33.0549 50.7707C33.5882 50.447 34.2712 50.2842 35.1058 50.2842C35.9236 50.2842 36.5972 50.447 37.1268 50.7707C37.6601 51.0907 38.0568 51.5417 38.3169 52.1255C38.5751 52.7093 38.7061 53.3961 38.7061 54.1839ZM33.1672 54.1839C33.1672 54.9773 33.3188 55.6042 33.6238 56.0626C33.9269 56.5173 34.4172 56.7438 35.0909 56.7438C35.7795 56.7438 36.2697 56.5173 36.5654 56.0626C36.8648 55.6042 37.0145 54.9773 37.0145 54.1839C37.0145 53.3905 36.8648 52.7655 36.5654 52.3051C36.2697 51.8467 35.7832 51.6165 35.1058 51.6165C34.4209 51.6165 33.9269 51.8467 33.6238 52.3051C33.3188 52.7655 33.1672 53.3905 33.1672 54.1839Z" fill="black"/>
<path d="M49.0217 57.9863H47.4199V54.7153H44.4109V57.9863H42.8091V50.3965H44.4109V53.3755H47.4199V50.3965H49.0217V57.9863Z" fill="black"/>
<path d="M56.3884 57.9863H54.7866V51.7363H52.7207V50.3965H58.4542V51.7363H56.3884V57.9863Z" fill="black"/>
<path d="M70.0194 57.9863L68.1856 52.0357H68.1482C68.1519 52.1761 68.1631 52.3875 68.1781 52.6719C68.1931 52.9564 68.2043 53.2614 68.2155 53.5851C68.2305 53.9107 68.238 54.2026 68.238 54.4609V57.9863H66.8083V50.3965H68.994L70.7904 56.1974H70.8278L72.729 50.3965H74.9146V57.9863H73.4176V54.3935C73.4176 54.154 73.4214 53.8808 73.4326 53.5701C73.442 53.2558 73.4513 52.9601 73.4625 52.6794C73.4775 52.4006 73.4869 52.1891 73.4925 52.0432H73.4476L71.494 57.9863H70.0194Z" fill="black"/>
<path d="M83.7239 57.9863H79.3601V50.3965H83.7239V51.7138H80.9619V53.383H83.5368V54.7004H80.9619V56.6615H83.7239V57.9863Z" fill="black"/>
<path d="M87.8416 57.9863V50.3965H92.632V51.7288H89.4433V53.3082H90.0796C90.7981 53.3082 91.3838 53.4092 91.8386 53.6076C92.297 53.8078 92.6357 54.0829 92.8565 54.4309C93.0755 54.7752 93.1859 55.1701 93.1859 55.6136C93.1859 56.3677 92.9351 56.9515 92.4374 57.365C91.9377 57.7805 91.1425 57.9863 90.0496 57.9863H87.8416ZM89.4433 56.6689H89.9898C90.4782 56.6689 90.8618 56.5922 91.1425 56.4369C91.4213 56.2778 91.5616 56.0028 91.5616 55.6136C91.5616 55.2094 91.4082 54.9455 91.105 54.8201C90.8 54.691 90.3865 54.6255 89.8625 54.6255H89.4433V56.6689Z" fill="black"/>
<path d="M103.155 57.9863H101.553V51.7363H99.6895C99.6484 52.0619 99.6035 52.4156 99.5548 52.7992C99.5099 53.1847 99.4594 53.5739 99.4051 53.9668C99.3546 54.3561 99.3003 54.7284 99.2404 55.0821C99.1843 55.432 99.13 55.7408 99.0758 56.0103C98.9803 56.45 98.855 56.8261 98.7015 57.1405C98.5518 57.4511 98.3441 57.6869 98.0803 57.8516C97.8145 58.0106 97.4702 58.0911 97.0473 58.0911C96.7666 58.0911 96.5103 58.0537 96.2764 57.9788V56.6615C96.3699 56.697 96.4598 56.7251 96.5458 56.7438C96.6356 56.7588 96.7348 56.7662 96.8452 56.7662C97.0492 56.7662 97.2064 56.6596 97.3168 56.4444C97.4253 56.2255 97.5376 55.8194 97.6536 55.2243C97.6929 54.996 97.7509 54.6405 97.8258 54.1615C97.9044 53.6787 97.9923 53.1117 98.0877 52.4624C98.1869 51.8149 98.2786 51.1263 98.3647 50.3965H103.155V57.9863Z" fill="black"/>
<path d="M110.436 57.9863H106.978V57.0731L107.906 56.6465V51.7363L106.978 51.3097V50.3965H110.436V51.3097L109.508 51.7363V56.6465L110.436 57.0731V57.9863Z" fill="black"/>
<path d="M114.264 50.3965H116.622C117.628 50.3965 118.392 50.5387 118.912 50.8231C119.43 51.1076 119.691 51.6072 119.691 52.3201C119.691 52.7543 119.588 53.121 119.384 53.4204C119.183 53.7161 118.897 53.8957 118.523 53.9594V54.0118C118.772 54.0679 119.002 54.1577 119.212 54.2812C119.421 54.4066 119.586 54.5918 119.706 54.8351C119.825 55.0746 119.885 55.3927 119.885 55.7857C119.885 56.4743 119.634 57.0133 119.137 57.4025C118.637 57.7917 117.958 57.9863 117.101 57.9863H114.264V50.3965ZM115.866 53.4055H116.801C117.269 53.4055 117.595 53.3344 117.774 53.1884C117.954 53.0443 118.044 52.8272 118.044 52.5372C118.044 52.2434 117.935 52.0338 117.722 51.9085C117.512 51.7793 117.177 51.7138 116.719 51.7138H115.866V53.4055ZM115.866 54.6779V56.6615H116.921C117.4 56.6615 117.733 56.5679 117.924 56.377C118.119 56.188 118.216 55.9391 118.216 55.6285C118.216 55.3441 118.119 55.1158 117.924 54.9399C117.729 54.7659 117.378 54.6779 116.869 54.6779H115.866Z" fill="black"/>
<path d="M25.9849 6.89745V3.10254H28.8292V6.89745H28.3576V3.5217H26.4639V6.89745H25.9849Z" fill="black"/>
<path d="M32.566 3.10254C33.06 3.10254 33.4193 3.19984 33.6438 3.39446C33.8721 3.58907 33.9881 3.86414 33.9881 4.21781C33.9881 4.42739 33.9395 4.62574 33.8459 4.80913C33.7561 4.98877 33.5989 5.1366 33.3744 5.25074C33.1536 5.36676 32.8542 5.4229 32.4762 5.4229H32.042V6.89745H31.563V3.10254H32.566ZM32.5211 3.51422H32.042V5.01122H32.4238C32.783 5.01122 33.0488 4.95508 33.2247 4.83907C33.4043 4.71931 33.4941 4.52095 33.4941 4.24026C33.4941 3.997 33.4137 3.81362 33.2546 3.69386C33.0993 3.5741 32.8542 3.51422 32.5211 3.51422Z" fill="black"/>
<path d="M38.8518 6.89777L38.3952 5.72262H36.8907L36.4416 6.89777H35.9551L37.4371 3.08789H37.8712L39.3458 6.89777H38.8518ZM38.253 5.29597L37.8263 4.15076C37.8151 4.12082 37.7983 4.06843 37.7739 3.99358C37.7477 3.91873 37.7234 3.84201 37.6991 3.76154C37.6785 3.68295 37.6617 3.62307 37.6467 3.5819C37.6168 3.69231 37.5868 3.79897 37.5569 3.90376C37.5269 4.00855 37.5007 4.09088 37.482 4.15076L37.0479 5.29597H38.253Z" fill="black"/>
<path d="M44.8689 6.47829V7.89296H44.4123V6.89745H41.5605V3.10254H42.0396V6.4708H43.9333V3.10254H44.4049V6.47829H44.8689Z" fill="black"/>
<path d="M51.9374 4.99656C51.9374 5.3914 51.8719 5.73571 51.7428 6.0295C51.6174 6.31954 51.4303 6.54596 51.1814 6.71063C50.9307 6.87156 50.6238 6.95015 50.2608 6.95015C49.9015 6.95015 49.5965 6.8753 49.3476 6.7256C49.1024 6.5759 48.9153 6.36632 48.7862 6.09686C48.6552 5.82366 48.5841 5.5018 48.5691 5.13129H47.6709V6.89776H47.1919V3.10285H47.6709V4.70465H48.5766C48.601 4.37156 48.6777 4.07965 48.8087 3.8289C48.9434 3.58002 49.1305 3.38728 49.37 3.25255C49.6096 3.11408 49.9033 3.04297 50.2533 3.04297C50.6163 3.04297 50.9232 3.1253 51.1739 3.28997C51.4228 3.4509 51.6118 3.67733 51.7428 3.97111C51.8719 4.26116 51.9374 4.6036 51.9374 4.99656ZM49.0706 4.99656C49.0706 5.4756 49.1623 5.8536 49.3476 6.1268C49.5366 6.40188 49.836 6.53848 50.2458 6.53848C50.6593 6.53848 50.9606 6.40188 51.1515 6.1268C51.3405 5.8536 51.4359 5.4756 51.4359 4.99656C51.4359 4.51752 51.3405 4.14327 51.1515 3.87381C50.9662 3.6006 50.6687 3.46213 50.2608 3.46213C49.8453 3.46213 49.5441 3.6006 49.3551 3.87381C49.1642 4.14888 49.0706 4.52313 49.0706 4.99656Z" fill="black"/>
<path d="M56.1235 3.46962C55.7493 3.46962 55.4443 3.57441 55.2104 3.78399C54.9802 3.99357 54.8436 4.3042 54.7987 4.71213H56.6475V5.13129H54.7912C54.8062 5.58039 54.9222 5.92845 55.143 6.17171C55.3676 6.41123 55.6932 6.53099 56.1235 6.53099C56.2976 6.53099 56.4622 6.51977 56.6176 6.49357C56.771 6.46363 56.9244 6.4262 57.0741 6.38129V6.80045C56.7991 6.89963 56.4604 6.95015 56.0562 6.95015C55.6464 6.95015 55.3095 6.87156 55.0457 6.71063C54.7856 6.54596 54.5929 6.31954 54.4694 6.0295C54.344 5.73571 54.2822 5.3914 54.2822 4.99656C54.2822 4.60734 54.3515 4.26864 54.4918 3.9786C54.6359 3.68481 54.8455 3.45465 55.1205 3.28997C55.3938 3.1253 55.7306 3.04297 56.131 3.04297C56.3649 3.04297 56.5689 3.06542 56.7448 3.11033C56.9188 3.1515 57.0779 3.20577 57.2238 3.275L57.0292 3.68668C56.9039 3.6268 56.7673 3.57815 56.6176 3.53698C56.4679 3.49207 56.3032 3.46962 56.1235 3.46962Z" fill="black"/>
<path d="M61.264 6.89745L60.014 3.5741H59.9916C60.001 3.6845 60.0084 3.83233 60.014 4.01571C60.0234 4.20097 60.029 4.39558 60.029 4.59955V6.89745H59.5874V3.10254H60.291L61.4661 6.20883H61.4811L62.6712 3.10254H63.3748V6.89745H62.9033V4.56212C62.9033 4.37874 62.9051 4.19535 62.9108 4.01571C62.9201 3.83607 62.9295 3.69011 62.9407 3.5741H62.9182L61.6533 6.89745H61.264Z" fill="black"/>
<path d="M69.4097 4.99656C69.4097 5.3914 69.3424 5.73571 69.2076 6.0295C69.0766 6.31954 68.882 6.54596 68.6238 6.71063C68.3637 6.87156 68.0437 6.95015 67.6657 6.95015C67.2709 6.95015 66.9415 6.87156 66.6777 6.71063C66.4176 6.54596 66.223 6.31767 66.0939 6.02201C65.9685 5.72822 65.9067 5.38391 65.9067 4.98908C65.9067 4.60547 65.9685 4.26864 66.0939 3.9786C66.223 3.68481 66.4176 3.45465 66.6777 3.28997C66.9415 3.1253 67.2709 3.04297 67.6657 3.04297C68.0437 3.04297 68.3637 3.1253 68.6238 3.28997C68.882 3.4509 69.0766 3.67733 69.2076 3.97111C69.3424 4.26116 69.4097 4.6036 69.4097 4.99656ZM66.4157 4.99656C66.4157 5.4756 66.5149 5.8536 66.7151 6.1268C66.9191 6.40188 67.2353 6.53848 67.6657 6.53848C68.0942 6.53848 68.4086 6.40188 68.6088 6.1268C68.8072 5.8536 68.9082 5.4756 68.9082 4.99656C68.9082 4.51752 68.8072 4.14327 68.6088 3.87381C68.4086 3.6006 68.0942 3.46213 67.6657 3.46213C67.2353 3.46213 66.9191 3.6006 66.7151 3.87381C66.5149 4.14327 66.4157 4.51752 66.4157 4.99656Z" fill="black"/>
<path d="M77.1193 3.99341C77.1193 4.2479 77.037 4.45374 76.8723 4.60718C76.7114 4.75688 76.498 4.85231 76.2286 4.89161V4.91407C76.5429 4.95898 76.7825 5.06189 76.9471 5.22095C77.1155 5.37627 77.2016 5.57836 77.2016 5.82724C77.2016 6.15658 77.0744 6.42604 76.8199 6.63562C76.5654 6.8452 76.1837 6.94999 75.6747 6.94999C75.4651 6.94999 75.2667 6.93502 75.0834 6.90508C74.8981 6.87514 74.726 6.82088 74.5669 6.74041V6.30628C74.7316 6.39236 74.9112 6.45598 75.1058 6.50089C75.3042 6.54206 75.4913 6.56077 75.6672 6.56077C76.0059 6.56077 76.2623 6.49715 76.4382 6.36616C76.6122 6.23704 76.7001 6.0574 76.7001 5.82724C76.7001 5.58398 76.5972 5.40621 76.3932 5.2958C76.1874 5.18727 75.9011 5.13113 75.5325 5.13113H74.9935V4.73442H75.51C75.8843 4.73442 76.1631 4.67267 76.3483 4.5473C76.5317 4.4238 76.6253 4.25351 76.6253 4.03832C76.6253 3.84932 76.5542 3.70149 76.4157 3.5967C76.2754 3.49191 76.0901 3.43951 75.8618 3.43951C75.6223 3.43951 75.4221 3.4732 75.263 3.53682C75.1077 3.5967 74.958 3.67529 74.8139 3.76886L74.5819 3.43951C74.7316 3.33098 74.9131 3.23742 75.1283 3.16257C75.3472 3.08772 75.5942 3.05029 75.8693 3.05029C76.2772 3.05029 76.5879 3.14011 76.7974 3.31975C77.0108 3.49565 77.1193 3.7202 77.1193 3.99341Z" fill="black"/>
<path d="M82.276 6.68034C82.276 6.47076 82.3079 6.27989 82.3733 6.10399C82.4426 5.92435 82.5249 5.76529 82.6204 5.62495C82.7139 5.48086 82.8393 5.31432 82.9946 5.12345C83.1537 4.9251 83.2809 4.75669 83.3763 4.62196C83.4699 4.48348 83.5504 4.32256 83.6159 4.14291C83.6795 3.96327 83.7132 3.76866 83.7132 3.55908C83.7132 3.43558 83.6945 3.34015 83.6608 3.27465C83.6252 3.20541 83.5597 3.16986 83.4662 3.16986C83.3165 3.16986 83.2416 3.30459 83.2416 3.57405V4.13543H82.276L82.2686 3.851C82.2686 3.50669 82.3022 3.22226 82.3733 2.9977C82.4426 2.77315 82.5642 2.60474 82.7401 2.48872C82.9198 2.36896 83.1668 2.30908 83.4811 2.30908C83.8591 2.30908 84.1548 2.41762 84.3644 2.63094C84.5739 2.84613 84.6787 3.15115 84.6787 3.54411C84.6787 3.79486 84.6432 4.02128 84.5739 4.22525C84.5084 4.43109 84.4242 4.61073 84.3195 4.76417C84.2184 4.91387 84.0874 5.09164 83.9227 5.29561C83.803 5.44157 83.7019 5.57068 83.6233 5.68483C83.5429 5.80085 83.4699 5.91687 83.4063 6.03663H84.6488V6.89741H82.276V6.68034Z" fill="black"/>
<path d="M87.7471 6.94231C87.3616 6.94231 87.0659 6.83378 86.8564 6.61297C86.6468 6.39403 86.542 6.08153 86.542 5.67734V3.61896C86.542 3.18482 86.6412 2.85548 86.8414 2.63093C87.0454 2.40264 87.3466 2.28662 87.7471 2.28662C88.1513 2.28662 88.4525 2.40264 88.6528 2.63093C88.8567 2.85548 88.9597 3.18482 88.9597 3.61896V5.67734C88.9597 6.08715 88.8549 6.40152 88.6453 6.62045C88.4357 6.83565 88.1363 6.94231 87.7471 6.94231ZM87.7471 6.0965C87.8163 6.0965 87.8706 6.06656 87.9118 6.00668C87.9567 5.9468 87.9791 5.87569 87.9791 5.78962V3.53662C87.9791 3.40189 87.9641 3.30271 87.9342 3.23722C87.9043 3.16798 87.8406 3.13243 87.7471 3.13243C87.6573 3.13243 87.5974 3.16798 87.5674 3.23722C87.5412 3.30271 87.53 3.40189 87.53 3.53662V5.78962C87.53 5.87569 87.5487 5.9468 87.5899 6.00668C87.6292 6.06656 87.6816 6.0965 87.7471 6.0965Z" fill="black"/>
<path d="M91.3841 3.37961C91.3243 3.45446 91.2382 3.51434 91.1296 3.55925C91.0192 3.60416 90.9163 3.62661 90.8228 3.62661V2.90057C90.9762 2.87624 91.1315 2.81449 91.2868 2.71344C91.4403 2.61426 91.5507 2.48515 91.6162 2.32422H92.3497V6.89757H91.3841V3.37961Z" fill="black"/>
<path d="M94.8358 3.37961C94.7759 3.45446 94.6898 3.51434 94.5813 3.55925C94.4709 3.60416 94.368 3.62661 94.2744 3.62661V2.90057C94.4279 2.87624 94.5832 2.81449 94.7385 2.71344C94.8919 2.61426 95.0023 2.48515 95.0678 2.32422H95.8014V6.89757H94.8358V3.37961Z" fill="black"/>
</svg>
